# xmcd
#
# Track frame offsets:
#	150
#	7152
#	28025
#	46186
#	53387
#	78666
#	92695
#	129331
#	175336
#	216641
#	265887
#	298043
#
# Disc length: 4399 seconds
#
# Revision: 1
# Processed by: cddbd v1.5.2PL0 Copyright (c) Steve Scherf et al.
# Submitted via: audiograbber 1.83.01
#
DISCID=a8112d0c
DTITLE=Grateful Dead - 78-01-06 Swing Auditorium, San Bernardino CA
DYEAR=1900
DGENRE=
TTITLE0=Tuning
TTITLE1=Promised Land
TTITLE2=Stage Banter
TTITLE3=Bob's Joke
TTITLE4=Dire Wolf
TTITLE5=Mama Tried
TTITLE6=Big River
TTITLE7=Loser
TTITLE8=Looks Like Rain
TTITLE9=Tennessee Jed
TTITLE10=Minglewood Blues
TTITLE11=Deal
EXTD=
EXTT0=
EXTT1=
EXTT2=
EXTT3=
EXTT4=
EXTT5=
EXTT6=
EXTT7=
EXTT8=
EXTT9=
EXTT10=
EXTT11=
PLAYORDER=
